<svg width="350" height="350" viewBox="0 0 350 350" fill="none" xmlns="http://www.w3.org/2000/svg">
<path d="M228.737 158.724L227.856 167.725L232.444 166.666V172.136L227.326 173.02C227.326 173.02 219.169 174.569 220.09 163.667C221.507 146.018 243.387 149.017 243.387 149.017L244.035 138.726C244.035 138.726 234.885 138.498 231.914 138.956C228.474 139.486 215.277 141.8 209.455 153.495L210.466 144.904C210.466 144.904 199.573 144.355 199.105 148.464C198.827 151.519 197.62 169.483 197.62 169.483C197.62 169.483 191.028 157.976 189.043 154.743C187.059 151.509 185.587 149.817 180.439 149.817C175.292 149.817 171.838 154.135 171.624 156.518C171.49 158.003 170.032 170.949 169.067 181.696C163.46 158.502 163.616 160.138 162.243 154.482C159.964 153.753 147.22 155.615 145.178 160.437C142.309 166.236 134.085 185.548 130.855 193.163L134.744 157.295C134.744 157.295 138.818 156.628 144.066 155.771C155.005 153.979 152.233 141.497 152.233 141.497C152.233 141.497 116.585 148.572 111.455 149.411C101.92 151.374 103.544 163.409 103.544 163.409L122.641 159.824C122.641 159.824 119.336 162.547 119.01 165.799C119.01 168.897 113.674 211.33 113.674 211.33L126.59 208.952L126.574 209.016L131.006 208.291C131.006 208.291 137.407 207.552 139.317 202.211C140.799 198.148 143.38 191.5 143.38 191.5L158.337 189.298C158.337 189.298 158.925 192.616 159.262 195.01C159.598 196.646 161.503 196.066 161.503 196.066L171.645 194.281L171.63 194.217L178.142 192.945L181.298 167.151C181.298 167.151 190.298 182.959 191.67 185.705C194.677 189.789 199.479 188.486 199.479 188.486L205.995 187.594L207.092 173.6L207.148 173.126C210.037 184.949 222.698 183.941 226.999 183.941C238.135 183.118 245.862 176.197 245.862 176.197L246.568 155.017L228.737 158.724ZM148.624 181.037L152.258 169.102L155.481 180.165L148.624 181.037Z" fill="#848484"/>
</svg>
