<svg width="350" height="350" viewBox="0 0 350 350" fill="none" xmlns="http://www.w3.org/2000/svg">
<path fill-rule="evenodd" clip-rule="evenodd" d="M112.96 178.371C112.96 169.827 119.037 163.626 127.41 163.626L127.411 163.627C134.709 163.627 139.673 168 140.692 175.325C140.809 176.15 140.809 176.569 140.809 177.149C140.809 179.118 139.81 180.076 137.754 180.076H118.843C119.086 184.639 122.95 188.193 127.702 188.193C131.119 188.193 133.177 186.71 134.74 185.26C135.433 184.622 136.037 184.35 136.759 184.35C138.192 184.35 139.231 185.362 139.231 186.754C139.231 187.081 139.143 187.936 138.318 188.823C135.558 191.634 132.086 193 127.702 193C119.021 193 112.96 186.984 112.96 178.371ZM135.043 175.734C134.863 171.082 131.95 168.2 127.41 168.2C122.928 168.2 119.274 171.429 118.849 175.734H135.043Z" fill="#848484"/>
<path d="M149.825 168.831C151.297 165.805 155.063 163.626 158.866 163.626V163.628C166.591 163.628 169.343 169.5 169.343 174.996V189.547C169.343 192.556 166.944 192.708 166.463 192.708C165.982 192.708 163.582 192.556 163.582 189.547V176.798C163.582 171.208 161.562 168.491 157.406 168.491C153.115 168.491 150.118 172.171 150.118 177.439V189.547C150.118 192.556 147.718 192.708 147.237 192.708C146.757 192.708 144.358 192.556 144.358 189.547V166.96C144.358 164.716 145.785 163.917 147.12 163.917C147.572 163.917 149.825 164.064 149.825 166.96V168.831Z" fill="#848484"/>
<path d="M192.537 166.212C193.112 164.691 194.077 163.917 195.408 163.917C197.015 163.917 198.23 165.076 198.23 166.612C198.23 166.873 198.181 167.425 197.87 168.176L188.754 189.599C187.672 192.168 185.896 192.708 184.597 192.708C183.297 192.708 181.522 192.168 180.442 189.598L171.385 168.293C171.066 167.533 171.023 167.045 171.023 166.67C171.023 165.152 172.316 163.917 173.904 163.917C175.263 163.917 176.222 164.668 176.834 166.212L184.655 185.956L192.537 166.212Z" fill="#848484"/>
<path fill-rule="evenodd" clip-rule="evenodd" d="M202.492 166.502C205.037 164.648 208.469 163.626 212.153 163.626L212.153 163.624C219.48 163.624 223.856 167.722 223.856 174.586V189.78C223.856 192.625 221.532 192.707 221.269 192.707C220.019 192.707 218.562 191.941 218.562 189.78V188.329C216.493 191.346 213.269 192.94 209.231 192.94C204.161 192.94 199.045 190.271 199.045 184.307C199.045 176.021 208.77 174.871 218.331 174.86V174.237C218.331 170.474 215.886 168.317 211.626 168.317C209.401 168.317 207.345 168.994 205.156 170.447C204.598 170.837 203.99 171.052 203.447 171.052C202.191 171.052 201.209 170.048 201.209 168.766C201.209 167.835 201.628 167.096 202.492 166.502ZM218.331 179.086H217.119C211.884 179.086 204.924 179.615 204.924 184.191C204.924 188.066 209.161 188.367 210.459 188.367C215.24 188.367 218.331 185.243 218.331 180.408V179.086Z" fill="#848484"/>
<path d="M241.508 166.786C241.508 167.178 241.381 169.132 238.86 169.132V169.129H233.677V183.377C233.677 186.423 234.693 187.842 236.875 187.842C237.241 187.842 237.575 187.794 238.068 187.671C238.472 187.556 238.837 187.492 239.094 187.492C240.425 187.492 241.391 188.454 241.391 189.78C241.391 190.72 240.81 191.548 239.796 192.052C238.912 192.463 237.56 192.707 236.173 192.707C230.81 192.707 227.976 189.682 227.976 183.959V159.16C227.976 156.152 230.375 156 230.856 156C232.158 156 233.677 156.828 233.677 159.16V164.383H238.86C240.812 164.383 241.508 165.625 241.508 166.786Z" fill="#848484"/>
<path fill-rule="evenodd" clip-rule="evenodd" d="M242.873 178.253C242.873 169.778 249.194 163.626 257.907 163.626C266.651 163.626 273 169.778 273 178.253C273 186.66 266.511 192.999 257.907 192.999C253.751 192.999 249.943 191.523 247.185 188.842C244.405 186.14 242.873 182.379 242.873 178.253ZM248.808 178.252C248.808 183.163 251.932 188.133 257.907 188.133C262.289 188.133 267.006 185.042 267.006 178.252C267.006 171.505 262.289 168.433 257.907 168.433C253.524 168.433 248.808 171.505 248.808 178.252Z" fill="#848484"/>
<path d="M94.9231 157.099C98.3191 156.051 101.147 155.714 102.133 156.259C104.8 157.743 109.024 173.918 104.475 182.039C100.543 189.076 91.626 191.603 84.5644 187.685C77.501 183.773 74.8612 174.834 78.8984 167.858C79.7128 166.45 80.9388 165.149 81.2332 164.855C81.3796 164.71 82.1967 165.22 81.9468 165.634C80.6066 170.289 81.2424 173.516 82.8475 176.581C82.9636 176.652 83.5496 176.912 83.6132 176.683C83.9635 167.108 88.9796 161.146 94.9231 157.099Z" fill="#848484"/>
</svg>
