<svg width="350" height="350" viewBox="0 0 350 350" fill="none" xmlns="http://www.w3.org/2000/svg">
<path fill-rule="evenodd" clip-rule="evenodd" d="M150.353 155.198L148.465 160.997H140.463L151.869 131.32H161.64L173.046 160.997H163.996L162.078 155.198H150.353ZM156.313 137.114L152.395 149.444H160.114L156.437 137.114H156.313Z" fill="#848484"/>
<path d="M182.24 142.893H182.147L182.028 139.027H173.917C174.129 141.248 174.17 142.484 174.17 144.331V159.664H182.147V151.402C182.028 147.45 183.446 145.028 187.613 144.987C188.159 144.987 188.701 144.988 189.293 145.028V138.411C185.767 138.325 183.157 139.481 182.24 142.893Z" fill="#848484"/>
<path d="M195.61 134.565V139.471H192.403V144.407H195.615V153.653C195.192 159.982 198.467 160.724 203.891 160.724C205.33 160.723 206.765 160.584 208.176 160.31V155.667C207.243 155.793 206.155 155.793 205.108 155.793C203.451 155.793 203.547 153.637 203.584 152.809C203.589 152.715 203.592 152.638 203.592 152.583V144.407H208.212V139.471H203.592V131.608L195.61 134.565Z" fill="#848484"/>
<path d="M172.489 164.671H164.13L156.906 186.171H156.824L149.976 164.671H140.695L151.405 194.353H161.439L172.489 164.671Z" fill="#848484"/>
<path d="M191.31 194.353C191.309 194.351 191.309 194.349 191.309 194.348L191.31 194.353Z" fill="#848484"/>
<path fill-rule="evenodd" clip-rule="evenodd" d="M191.068 192.42C191.134 192.938 191.215 193.564 191.309 194.348H183.668C183.503 193.687 183.503 193.035 183.503 191.547H183.41C182.451 193.035 180.641 194.958 176.691 194.958C171.695 194.958 169.091 192.339 169.173 188.099C169.256 183.083 173.958 181.034 180.847 181.034H183.369C183.369 180.85 183.373 180.657 183.378 180.46C183.417 178.723 183.466 176.614 180.6 176.718C178.661 176.799 178.042 178.651 178.084 179.893H170.566C170.519 176.961 172.071 175.28 174.216 174.331C176.408 173.342 179.13 173.095 181.482 173.095C185.767 173.095 190.933 174.861 190.846 179.514V190.113C190.846 190.704 190.924 191.314 191.068 192.42ZM179.001 184.98C177.826 185.561 176.898 186.303 176.898 187.741C176.896 188.454 177.183 189.139 177.694 189.647C178.206 190.154 178.902 190.443 179.63 190.451C183.08 190.451 183.369 187.287 183.369 184.536C183.161 184.536 182.955 184.535 182.751 184.534C181.302 184.524 179.959 184.516 179.001 184.98Z" fill="#848484"/>
<path d="M209.46 173.1C206.768 173.1 204.675 173.922 202.87 175.971L202.731 173.72H194.63C194.842 175.946 194.883 177.178 194.883 179.03V194.358H202.865V182.517C202.865 182.503 202.863 182.475 202.861 182.434C202.82 181.787 202.587 178.041 206.304 178.041C208.785 178.041 209.29 180.221 209.367 182.23V194.353H217.349V180.544C217.349 175.971 213.998 173.1 209.46 173.1Z" fill="#848484"/>
<path fill-rule="evenodd" clip-rule="evenodd" d="M113 113H236V236.002H113V113ZM143.216 218.564L136.554 227.911H215.003L204.582 211.725L143.216 218.564ZM221.768 227.911H228.925V121.095H120.069V227.906H127.804L134.672 215.142L127.737 162.774L144.279 125.406H147.486V130.932L135.745 164.354L148.285 202.772L210.45 199.355L221.768 227.911Z" fill="#848484"/>
</svg>
