<svg width="350" height="350" viewBox="0 0 350 350" fill="none" xmlns="http://www.w3.org/2000/svg">
<path d="M238.742 211.928L238.833 211.851C238.887 211.802 238.938 211.76 238.976 211.721L239.131 211.607C239.195 211.549 239.264 211.503 239.326 211.448C239.643 211.228 240.39 210.698 240.732 210.395C240.858 210.304 240.891 210.282 240.902 210.275L241.892 209.53C244.319 207.713 246.829 205.835 249.153 203.834C250.07 203.039 250.929 202.176 250.985 201.252C251.008 200.85 250.847 200.459 250.523 200.107C249.797 199.336 248.796 199.413 247.458 200.345C246.45 201.045 245.493 201.834 244.77 202.441C242.902 204.023 241.078 205.723 239.7 207.03L239.149 207.554L239.307 206.811C240.053 203.443 240.564 200.339 240.883 197.334C239.995 197.168 238.557 197.037 238.04 197.021C237.926 198.04 237.777 199.137 237.594 200.339C236.867 205.139 235.83 210.725 233.634 215.776C232.963 217.309 232.11 219.056 230.816 220.322C230.329 220.786 229.824 221.127 229.318 221.314C229.13 221.386 228.96 221.421 228.813 221.421C228.329 221.421 228.235 221.014 228.2 220.885C227.908 219.765 228.109 218.499 228.312 217.402C228.42 216.797 228.563 216.192 228.739 215.619L228.902 215.194C228.95 215.163 229.012 215.138 229.097 215.134C229.244 215.122 230.166 214.997 230.472 214.902C231.358 214.637 231.974 214.103 232.205 213.415C232.555 212.398 231.996 211.358 231.354 210.729C230.571 209.963 229.348 209.869 228.453 210.501C228.043 210.791 227.672 211.207 227.312 211.769C227.248 211.872 227.187 211.98 227.129 212.083L227.061 212.206L226.92 212.203C226.258 212.183 224.93 211.932 224.464 211.742C224.29 211.667 224.213 211.47 224.193 211.067C224.193 210.988 224.18 210.907 224.168 210.839C224.04 210.184 223.812 209.669 223.476 209.279C222.863 208.534 221.908 208.24 220.902 208.534C220.026 208.792 218.935 209.48 218.74 210.584C218.613 211.313 218.922 212.083 219.601 212.694C220.007 213.071 220.637 213.398 220.974 213.57L221.291 213.744L221.242 213.974C221.169 214.361 221.092 214.693 221.01 215.028C220.653 216.424 220.158 217.69 219.543 218.804C218.914 219.932 218.272 220.726 217.57 221.243C217.102 221.587 216.509 221.8 215.977 221.8C215.492 221.8 215.086 221.633 214.77 221.314C213.767 220.253 213.461 218.342 213.877 215.639C213.96 215.057 214.001 214.61 213.691 214.181C213.401 213.751 212.92 213.504 212.371 213.504C211.346 213.537 210.969 214.453 210.611 215.335C210.524 215.552 210.439 215.766 210.344 215.958C209.331 218.04 208.194 219.564 206.879 220.618C206.264 221.098 205.529 221.62 204.93 221.62C204.771 221.62 204.634 221.575 204.52 221.496C204.172 221.272 204.073 220.715 204.032 220.26C203.93 219.162 204.156 218.062 204.396 217.135C204.736 215.811 205.413 214.683 206.403 213.782C206.821 213.4 207.355 213.09 207.946 212.889C208.2 212.798 208.488 212.756 208.801 212.756C209.414 212.756 210 212.924 210.441 213.067C210.667 213.138 210.965 212.984 211.234 212.64C211.64 212.125 211.874 211.352 211.763 210.878C211.586 210.211 209.988 209.843 209.226 209.843C208.989 209.843 208.768 209.853 208.575 209.871C206.353 210.037 204.353 211.232 202.516 214.043C202.033 214.788 199.848 218.936 201.669 222.385C202.282 223.669 203.493 224.433 204.901 224.433C205.127 224.433 205.351 224.418 205.577 224.375C207.368 224.062 209.141 222.776 210.851 220.564L211.129 220.195L211.261 220.637C211.628 221.888 212.432 223.544 214.148 224.3C215.673 224.971 217.783 224.642 219.303 223.517C220.535 222.598 221.581 221.204 222.515 219.23C223.172 217.843 223.665 216.36 223.986 214.813L224.035 214.575L224.269 214.625C224.758 214.736 225.234 214.825 225.69 214.898L225.953 214.945L225.874 215.204C225.207 217.296 224.694 221.132 226.011 223.083C226.535 223.857 227.264 224.261 228.258 224.321C228.378 224.331 228.476 224.335 228.583 224.335C231.478 224.335 234.022 221.931 236.138 217.182L236.335 216.743L236.561 217.164C238.978 221.662 243.648 224.482 248.742 224.509C248.958 224.499 249.223 224.487 249.376 224.468C249.422 224.025 249.387 222.561 249.237 221.695C249.022 221.703 248.682 221.72 248.515 221.72C247.427 221.72 245.653 221.471 243.41 220.283C242.119 219.603 240.939 218.539 239.903 217.13C239.125 216.066 238.578 214.989 238.29 213.918C238.176 213.543 238.116 213.227 238.102 212.91C238.075 212.495 238.429 212.195 238.742 211.928Z" fill="#848484"/>
<path d="M186.372 221.925C185.857 222.387 185.187 222.324 184.98 221.987C184.862 221.883 184.67 221.716 185.279 219.781C185.301 219.698 185.324 219.605 185.347 219.541L185.37 219.483C185.566 218.709 185.778 217.799 185.809 216.863C185.89 214.554 184.448 212.626 182.216 212.065L181.888 211.986L182.081 211.704C183.798 209.277 185.038 207.239 185.987 205.299C186.567 204.114 187.2 202.71 187.41 201.208C187.526 200.374 187.466 199.633 187.238 199.009C186.743 197.65 185.444 196.857 183.678 196.832C182.002 196.832 180.435 198.044 179.032 200.436C177.927 202.3 177.053 204.508 176.183 207.587C175.452 210.238 174.919 212.972 174.607 215.701C174.569 216.051 174.532 216.352 174.505 216.656C174.482 216.911 174.257 217.139 174.093 217.298C174.031 217.371 174.002 217.402 173.969 217.443C173.437 218.035 172.995 218.495 172.577 218.885C171.6 219.812 170.655 220.514 169.69 221.022C168.992 221.39 167.942 221.823 166.903 221.823C166.335 221.823 165.821 221.691 165.389 221.43C164.778 221.065 164.374 220.483 164.19 219.696C163.86 218.284 164.359 216.503 165.014 215.472C165.697 214.401 167.292 212.595 168.976 212.595C169.396 212.595 169.808 212.711 170.187 212.953C170.514 213.148 170.912 213.394 171.281 213.394C171.506 213.394 171.695 213.295 171.856 213.094C172.169 212.703 172.31 212.104 172.227 211.545C172.159 211.075 171.948 210.694 171.629 210.468C170.898 209.952 170.032 209.691 169.056 209.691C167.671 209.691 166.126 210.255 164.912 211.207C163.26 212.508 162.017 214.43 161.212 216.917C161.054 217.385 160.949 217.886 160.841 218.361L160.808 218.551C160.7 219.013 160.598 219.485 160.449 219.941C160.217 220.68 159.805 221.68 158.96 221.9C158.815 221.937 158.687 221.956 158.577 221.956C157.711 221.956 157.43 221.009 157.291 220.301C157.138 219.522 157.117 218.737 157.117 218.009C157.125 217.468 157.15 216.929 157.196 216.358C157.214 216.159 157.237 215.948 157.272 215.735C157.345 215.248 157.395 214.803 157.326 214.386C157.192 213.672 156.548 213.148 155.796 213.148C155.553 213.148 155.317 213.206 155.114 213.314C154.709 213.523 154.448 213.873 154.294 214.432C154.108 215.08 153.884 215.722 153.636 216.343C152.789 218.443 151.759 219.959 150.486 220.968C150.03 221.335 149.111 221.948 148.15 221.948C147.858 221.948 147.592 221.892 147.363 221.78C146.456 221.393 146.077 220.316 146.277 218.671C146.412 217.582 146.81 216.476 147.418 215.48C148.116 214.343 149.162 213.448 150.283 213.009C151.132 212.68 151.939 212.647 153.193 212.91C153.787 213.044 154.153 212.833 154.385 212.282C154.601 211.775 154.696 210.986 154.385 210.443C154.236 210.188 152.743 209.838 151.815 209.838C150.914 209.855 150.094 210.006 149.347 210.29C146.443 211.388 144.21 214.212 143.515 217.661C143.347 218.518 143.295 219.321 143.359 220.044L143.368 220.096L143.351 220.14C143.071 220.933 142.616 221.281 141.781 221.347C140.321 221.451 138.867 221.09 137.685 220.303L137.393 220.113L137.674 219.914C139.578 218.586 141.858 216.743 142.62 214.355C143.171 212.611 142.595 210.83 141.181 209.923C140.487 209.466 139.665 209.232 138.745 209.232C137.285 209.232 135.657 209.838 134.398 210.849C132.692 212.206 131.87 214.374 132.188 216.642C132.311 217.493 132.567 218.321 132.957 219.104L133.066 219.319L132.845 219.425C130.788 220.38 128.587 221.014 126.294 221.308L125.267 221.442L126.133 220.881C128.193 219.554 131.555 216.787 130.975 213.148C130.393 209.557 126.377 208.076 124.685 207.606L124.426 207.538L124.524 207.295C125.29 205.525 126.048 202.886 125.369 200.351C124.87 198.483 123.59 196.93 121.773 195.99C120.46 195.314 118.988 194.967 117.403 194.967C113.97 194.967 110.428 196.571 108.161 199.158C105.414 202.259 104.795 206.235 104.766 209.093C104.872 209.103 105.033 209.109 105.276 209.109C106.237 209.109 107.539 209.004 108.264 208.788C108.279 208.2 108.326 207.585 108.405 206.929C108.546 205.812 108.803 204.744 109.179 203.77C110.625 200.059 114.08 197.677 117.9 197.866C119.715 197.955 122.045 198.856 122.625 201.146C122.879 202.13 122.825 203.298 122.465 204.615C122.297 205.203 121.759 206.473 121.577 206.873L121.512 207.024L121.349 207.013C120.961 206.98 120.044 206.929 119.706 206.924H119.379C116.548 206.924 114.419 207.407 112.868 208.414C111.054 209.596 110.521 211.51 111.549 213.166C112.487 214.666 113.918 215.523 115.492 215.523C116.043 215.523 116.604 215.422 117.155 215.219C119.067 214.523 120.889 213.005 122.573 210.696C122.67 210.571 122.759 210.435 122.852 210.313L122.892 210.261L123.095 210.149C123.14 210.149 123.182 210.164 123.231 210.182L123.337 210.211C123.643 210.279 123.948 210.358 124.25 210.454C124.892 210.654 125.449 210.876 125.948 211.137C126.945 211.655 127.591 212.241 127.935 212.932C129.032 215.138 126.427 217.286 124.768 218.363C123.761 219.027 122.626 219.616 121.297 220.158C120.986 220.285 120.682 220.405 120.357 220.519L119.885 220.686C119.733 220.746 119.624 220.746 119.437 220.645L119.383 220.618C118.818 220.372 118.219 220.061 117.549 219.659C115.61 218.485 113.893 216.994 112.228 215.559C111.828 215.227 111.429 214.883 111.039 214.542C108.935 212.773 106.831 211.166 104.234 210.95C104.099 210.944 103.94 210.932 103.799 210.932C101.763 210.932 100.009 212.077 99.3418 213.852C98.5626 215.915 99.1872 218.404 101.013 220.512C102.519 222.258 104.671 223.609 107.075 224.311C109.389 224.992 112.067 225.135 115.107 224.737C116.478 224.557 117.896 224.265 119.307 223.867C119.69 223.756 120.187 223.882 120.645 224.01C120.904 224.089 121.102 224.151 121.28 224.176C121.964 224.3 122.668 224.362 123.374 224.362L123.467 224.354C126.224 224.338 128.935 223.886 131.524 223.02C132.184 222.79 132.768 222.567 133.311 222.331C133.53 222.24 134.054 221.999 134.404 221.836L134.789 221.666L134.883 221.709C134.926 221.734 134.937 221.745 134.999 221.809C135.038 221.85 135.084 221.898 135.106 221.919C135.92 222.631 136.832 223.192 137.822 223.584C138.886 224.012 140.046 224.222 141.27 224.222C141.821 224.215 142.473 224.19 143.098 224.037C143.372 223.965 143.641 223.865 143.875 223.743C144.003 223.679 144.128 223.609 144.244 223.536C144.277 223.511 144.316 223.478 144.356 223.443C144.413 223.391 144.484 223.327 144.598 223.327H144.695L144.763 223.393C145.625 224.296 146.774 224.77 148.096 224.77C149.104 224.77 150.187 224.478 151.136 223.956C152.238 223.337 153.259 222.418 154.168 221.221L154.462 220.835L154.58 221.301C155.042 223.093 156.071 224.28 157.486 224.659C159.265 225.133 161.141 224.369 162.239 222.78L162.413 222.534L162.612 222.764C163.637 223.983 165.18 224.648 166.959 224.648C167.427 224.648 167.884 224.605 168.313 224.524C170.175 224.164 172.086 223.132 173.996 221.45L174.385 221.107V221.627C174.381 222.383 174.402 223.861 174.402 223.861C174.418 224.905 176.62 224.934 176.866 224.934C176.966 224.934 177.04 224.909 177.092 224.845C177.212 224.729 177.276 224.48 177.266 224.145C177.15 220.429 177.564 217.859 178.502 216.484C178.9 215.894 180.082 214.405 181.592 214.852C183.597 215.48 182.947 217.673 182.474 219.278C182.375 219.613 182.286 219.906 182.228 220.167C181.984 221.233 181.81 222.588 182.576 223.648C183.112 224.377 183.982 224.814 185.154 224.946C185.258 224.959 185.363 224.959 185.467 224.959C186.811 224.988 187.41 224.541 188.172 223.967C189.414 222.863 187.478 221.129 186.372 221.925ZM119.34 210.168C118.58 211.019 117.404 212.201 115.943 212.609C115.755 212.661 115.569 212.692 115.407 212.692C114.914 212.692 114.506 212.45 114.148 211.959C113.98 211.727 113.934 211.52 113.99 211.334C114.038 211.106 114.251 210.888 114.637 210.685C116.051 209.911 117.799 209.797 119.162 209.782L119.692 209.78L119.34 210.168ZM114.964 221.877C113.814 222.045 112.783 222.126 111.803 222.126C109.853 222.126 108.132 221.794 106.696 221.144L106.611 221.1C104.514 220.131 103.068 218.889 102.325 217.427C101.825 216.43 101.778 215.275 102.215 214.566C102.527 214.057 103.062 213.794 103.768 213.794H103.863C105.858 213.873 107.531 215.3 109.005 216.567L110.213 217.6C111.671 218.862 113.324 220.284 115.061 221.45L115.564 221.79L114.964 221.877ZM135.546 217.917L135.432 217.669C135.38 217.557 135.338 217.445 135.289 217.319C134.943 216.395 134.881 215.443 135.111 214.641C135.541 213.171 137.105 212.257 138.426 212.121C138.511 212.108 138.623 212.1 138.735 212.1C139.398 212.1 139.828 212.321 139.938 212.725C140.085 213.251 139.77 213.852 139.524 214.258C138.625 215.72 137.126 216.851 135.777 217.758L135.546 217.917ZM181.06 208.126C180.894 208.355 180.799 208.511 180.737 208.614L180.664 208.724C180.01 209.698 179.316 210.675 178.608 211.642L177.972 212.5L178.19 211.448C178.769 208.643 179.498 206.218 180.416 204.058C181.048 202.573 181.764 201.047 182.905 200.072C183.33 199.719 183.682 199.645 184.179 199.742C184.659 199.848 184.628 200.281 184.604 200.575C184.508 201.822 183.901 203.068 183.411 204.066C182.802 205.297 182.058 206.587 181.06 208.126Z" fill="#848484"/>
<path d="M205.839 208.598C208.18 205.392 207.954 201.287 205.276 198.39C202.737 195.644 199.243 194.646 196.375 195.849C193.859 196.905 189.499 200.457 190.791 212.402C191.115 215.414 191.672 218.176 192.102 220.138C192.715 222.919 193.552 224.737 195.058 224.847C195.112 224.853 195.161 224.855 195.213 224.855C196.783 224.855 197.286 223.029 197.471 222.331C198.075 220.15 198.496 216.149 198.45 212.467C201.691 212.301 204.338 210.656 205.839 208.598ZM203.787 207.049C202.816 208.382 200.676 209.538 198.318 209.658C198.179 207.993 198.135 207.219 197.446 205.145C196.874 203.052 194.134 204.209 194.656 206.051C194.96 206.908 195.176 208.003 195.319 209.229C195.319 209.229 195.031 209.082 194.884 209.217C194.453 209.629 193.78 210.801 193.755 211.849C194.262 212.019 195.033 212.106 195.513 212.212C195.565 214.569 195.41 218.504 195.091 220.574C194.72 219.916 193.302 211.485 193.376 209.027C193.401 203.443 195.043 199.258 197.56 198.203C197.988 198.025 198.444 197.938 198.92 197.938C200.306 197.938 202.074 198.725 203.319 200.071C205.487 202.424 204.98 205.411 203.787 207.049Z" fill="#848484"/>
<path d="M152.714 170.28C153.016 170.16 153.433 170.141 153.913 170.214C154.578 170.315 156.16 170.75 158.296 172.558C158.304 172.567 158.322 172.579 158.333 172.589C158.405 172.654 158.482 172.716 158.554 172.788C158.583 172.805 158.61 172.83 158.633 172.854C158.741 172.948 158.844 173.049 158.95 173.148C159.002 173.2 159.06 173.246 159.116 173.3C159.165 173.349 159.213 173.395 159.267 173.445C159.319 173.501 159.383 173.561 159.435 173.616C159.486 173.662 159.53 173.71 159.579 173.757C159.652 173.832 159.727 173.911 159.803 173.991C159.834 174.016 159.855 174.045 159.886 174.07C161.261 175.538 162.607 176.864 163.951 178.086C164.6 178.68 165.254 179.252 165.909 179.798C165.919 179.803 165.935 179.813 165.942 179.821C165.964 179.846 165.994 179.865 166.018 179.883C166.062 179.919 166.103 179.962 166.149 179.993C166.321 180.138 166.497 180.281 166.669 180.42C166.793 180.521 166.917 180.617 167.037 180.716C167.116 180.774 167.194 180.832 167.267 180.89C170.984 183.804 174.774 186.007 178.709 187.517C180.546 188.223 182.414 188.778 184.312 189.19C184.413 189.205 184.51 189.228 184.612 189.248C184.674 189.263 184.738 189.273 184.806 189.29C184.873 189.3 184.945 189.315 185.018 189.327C185.163 189.36 185.316 189.389 185.463 189.418C185.569 189.435 185.664 189.451 185.772 189.472C186.03 189.516 186.291 189.565 186.556 189.6C186.672 189.617 186.797 189.634 186.927 189.652C187.037 189.669 187.147 189.679 187.273 189.698C187.275 189.698 187.281 189.698 187.285 189.698C189.566 189.986 193.302 190.222 196.992 190.011C199.666 189.866 202.317 189.487 204.384 188.735C206.567 187.942 207.705 185.517 206.908 183.334C206.378 181.886 205.108 180.84 203.586 180.608C202.888 180.5 201.503 180.811 201.503 180.811C200.262 181.267 196.323 181.615 196.381 181.615C196.323 181.615 196.269 181.617 196.209 181.619C193.768 181.735 191.272 181.637 189.39 181.449C189.327 181.445 189.261 181.443 189.205 181.432C189.127 181.432 189.062 181.418 188.994 181.41C188.901 181.401 188.805 181.385 188.71 181.379C188.677 181.374 188.63 181.37 188.596 181.366C188.485 181.348 188.383 181.337 188.28 181.325C188.253 181.323 188.228 181.319 188.199 181.314C188.077 181.298 187.95 181.283 187.838 181.263C187.515 181.211 187.188 181.153 186.863 181.093C186.805 181.08 186.737 181.07 186.674 181.058C186.6 181.041 186.529 181.025 186.453 181.012C186.204 180.958 185.954 180.909 185.707 180.85C185.683 180.844 185.666 180.836 185.647 180.836C185.31 180.761 184.978 180.674 184.645 180.583C184.632 180.581 184.624 180.579 184.614 180.577C184.262 180.482 183.914 180.378 183.572 180.271H183.56C182.336 179.888 181.124 179.422 179.931 178.875C179.764 178.798 179.602 178.722 179.441 178.641C179.42 178.634 179.401 178.628 179.384 178.616C179.063 178.469 178.749 178.305 178.422 178.137C178.382 178.111 178.334 178.084 178.291 178.063C178.028 177.926 177.773 177.785 177.51 177.64C177.444 177.599 177.367 177.556 177.295 177.518C177.038 177.371 176.781 177.222 176.524 177.061C176.382 176.972 176.241 176.885 176.096 176.798C175.98 176.723 175.864 176.651 175.748 176.582C175.398 176.354 175.046 176.12 174.704 175.884C174.698 175.88 174.694 175.876 174.685 175.874C173.561 175.106 172.438 174.256 171.324 173.324V173.32C169.891 172.127 168.472 170.8 167.01 169.301C166.685 168.971 166.358 168.64 166.033 168.294C166.033 168.294 166.033 168.294 166.027 168.288C166 168.257 165.968 168.23 165.948 168.201C165.774 168.017 165.606 167.84 165.426 167.666C165.382 167.627 165.343 167.582 165.3 167.54C165.132 167.374 164.966 167.215 164.801 167.056C164.757 167.018 164.718 166.979 164.676 166.944C163.835 166.157 162.972 165.451 162.098 164.833C161.943 164.724 161.785 164.62 161.628 164.516C160.489 163.758 159.329 163.141 158.177 162.69C157.956 162.599 157.728 162.522 157.511 162.446C156.738 162.185 155.962 161.988 155.185 161.868C153.232 161.567 151.376 161.754 149.668 162.416C146.217 163.758 144.049 166.896 143.997 170.607C143.929 176.021 148.251 181.095 155.57 184.185C155.597 184.197 155.62 184.21 155.647 184.222C155.651 184.22 155.651 184.222 155.651 184.222C158.832 185.556 162.359 186.525 166.138 187.107C166.561 187.171 166.983 187.231 167.408 187.285C167.582 187.306 167.758 187.327 167.928 187.351C168.176 187.38 168.423 187.409 168.669 187.43C168.891 187.451 169.098 187.474 169.319 187.492C169.52 187.511 169.721 187.532 169.922 187.544C170.164 187.563 170.405 187.581 170.649 187.598C170.806 187.608 170.97 187.616 171.13 187.623C171.403 187.639 171.676 187.652 171.948 187.666C172.037 187.666 172.121 187.666 172.204 187.675C173.248 187.71 174.286 187.716 175.315 187.691C175.358 187.691 175.404 187.691 175.447 187.691C172.356 186.237 169.365 184.369 166.374 182.021L166.083 181.797C165.969 181.708 165.867 181.623 165.753 181.528L165.616 181.428C165.488 181.317 165.358 181.209 165.229 181.101L165.076 180.979L165.037 180.94L164.983 180.904C164.335 180.362 163.662 179.774 162.98 179.154C162.291 178.527 161.605 177.881 160.93 177.204C160.228 176.972 159.557 176.723 158.906 176.448C154.124 174.439 152.412 171.918 152.426 170.715C152.418 170.44 152.49 170.363 152.714 170.28Z" fill="#848484"/>
<path d="M194.766 167.754C194.764 167.865 194.756 167.979 194.749 168.093C194.743 168.174 194.743 168.253 194.735 168.333C194.724 168.466 194.71 168.6 194.697 168.735C194.685 168.799 194.685 168.868 194.673 168.94C194.652 169.145 194.625 169.352 194.592 169.561C194.198 172.134 192.461 174.3 189.439 175.992C189.176 176.145 188.895 176.286 188.613 176.423C188.507 176.477 188.397 176.524 188.286 176.578C188.107 176.659 187.923 176.746 187.741 176.825C187.608 176.885 187.464 176.942 187.323 176.996C187.161 177.061 186.991 177.133 186.817 177.197C186.662 177.261 186.509 177.313 186.349 177.373C186.188 177.423 186.024 177.481 185.865 177.539C185.691 177.595 185.517 177.653 185.341 177.707C185.189 177.756 185.026 177.802 184.873 177.848C184.678 177.904 184.487 177.957 184.299 178.011C184.152 178.051 184.001 178.088 183.85 178.123C183.642 178.179 183.433 178.231 183.222 178.278C183.085 178.312 182.953 178.342 182.812 178.371C182.738 178.384 182.661 178.398 182.59 178.413C183.038 178.581 183.489 178.74 183.941 178.881L184.019 178.898L184.063 178.92C184.369 179.013 184.674 179.103 184.987 179.183L185.026 179.198C185.324 179.281 185.629 179.355 185.929 179.43C185.945 179.43 186.028 179.448 186.028 179.448C186.264 179.502 186.502 179.552 186.732 179.6L187.138 179.682C187.432 179.734 187.745 179.79 188.054 179.836C188.147 179.856 188.221 179.861 188.294 179.873L188.741 179.931C188.785 179.937 188.83 179.945 188.874 179.946C188.93 179.952 189.205 179.983 189.205 179.983L189.35 179.995L189.518 180.016C191.62 180.221 194.027 180.279 196.139 180.177C196.139 180.177 196.238 180.171 196.286 180.171C196.303 180.171 196.323 180.165 196.336 180.163C197.009 180.101 197.609 180.033 198.137 179.964C198.257 179.85 198.371 179.732 198.483 179.608C198.533 179.567 198.577 179.519 198.624 179.469C198.734 179.347 198.846 179.225 198.96 179.107C199.007 179.051 199.059 178.997 199.111 178.935C199.219 178.819 199.316 178.697 199.419 178.577C199.467 178.516 199.519 178.456 199.566 178.394C199.666 178.27 199.765 178.148 199.854 178.022C199.902 177.962 199.949 177.903 199.989 177.845C200.088 177.715 200.181 177.587 200.273 177.458C200.31 177.402 200.341 177.35 200.382 177.297C200.473 177.158 200.569 177.019 200.66 176.878C200.676 176.845 200.695 176.814 200.71 176.785C201.155 176.087 201.532 175.362 201.847 174.611C201.861 174.577 201.876 174.55 201.89 174.517C201.958 174.354 202.021 174.198 202.083 174.033C202.101 173.981 202.12 173.933 202.139 173.877C202.197 173.724 202.25 173.571 202.302 173.414C202.321 173.353 202.34 173.291 202.364 173.229C202.41 173.078 202.451 172.921 202.501 172.772C202.522 172.705 202.542 172.637 202.555 172.567C202.598 172.415 202.636 172.264 202.675 172.111C202.69 172.038 202.706 171.972 202.721 171.902C202.756 171.746 202.791 171.595 202.82 171.438C202.822 171.429 202.822 171.421 202.824 171.411C202.826 171.401 202.83 171.394 202.833 171.384C202.859 171.299 202.88 171.206 202.905 171.117C202.928 171.009 202.948 170.903 202.967 170.792C204.139 162.943 201.271 158.339 198.473 155.796C198.43 155.76 198.394 155.723 198.351 155.684C198.345 155.68 198.338 155.675 198.334 155.663C198.256 155.599 198.183 155.533 198.108 155.466C198.096 155.46 198.08 155.452 198.075 155.441C197.933 155.321 197.779 155.203 197.632 155.089C196.659 157.566 195.157 160.014 193.15 162.369C193.144 162.373 193.144 162.379 193.138 162.385C193.167 162.419 193.2 162.454 193.231 162.489C193.246 162.501 193.252 162.516 193.262 162.522C193.337 162.617 193.411 162.708 193.486 162.802C193.498 162.822 193.511 162.845 193.529 162.86C193.59 162.951 193.654 163.046 193.716 163.141C193.73 163.164 193.749 163.195 193.766 163.22C193.823 163.315 193.875 163.408 193.929 163.504C193.946 163.537 193.962 163.572 193.981 163.607C194.027 163.696 194.074 163.792 194.116 163.891C194.134 163.93 194.157 163.97 194.172 164.013C194.211 164.106 194.25 164.198 194.283 164.295C194.306 164.343 194.323 164.39 194.339 164.442C194.37 164.537 194.405 164.63 194.432 164.721C194.449 164.78 194.463 164.835 194.476 164.893C194.507 164.982 194.526 165.078 194.55 165.173C194.565 165.237 194.577 165.301 194.592 165.359C194.61 165.459 194.625 165.544 194.644 165.647C194.658 165.72 194.669 165.786 194.677 165.861C194.691 165.954 194.702 166.045 194.718 166.14C194.726 166.217 194.731 166.298 194.737 166.378C194.745 166.471 194.755 166.561 194.76 166.656C194.762 166.745 194.766 166.832 194.774 166.923C194.774 167.014 194.78 167.103 194.78 167.194C194.78 167.294 194.78 167.393 194.778 167.493C194.77 167.579 194.77 167.666 194.766 167.754Z" fill="#848484"/>
<path d="M171.515 136.256C166.509 138.536 160.151 143.91 158.059 156.525C158.061 156.527 158.07 156.527 158.07 156.527H158.072C158.047 156.628 158.024 156.73 158.007 156.833L157.972 157.051V157.055C157.972 157.061 157.972 157.071 157.972 157.077C157.972 157.077 157.972 157.079 157.972 157.088C157.972 157.088 157.972 157.094 157.966 157.102C157.966 157.106 157.96 157.119 157.96 157.125C157.96 157.135 157.96 157.144 157.96 157.148C157.96 157.154 157.96 157.16 157.954 157.164C157.954 157.169 157.954 157.175 157.952 157.179C157.954 157.185 157.95 157.195 157.95 157.2C157.95 157.22 157.95 157.229 157.947 157.243C157.947 157.254 157.945 157.272 157.943 157.282C157.937 157.293 157.937 157.297 157.937 157.311C157.937 157.316 157.937 157.322 157.937 157.328C157.931 157.343 157.931 157.357 157.931 157.374C157.929 157.394 157.927 157.405 157.923 157.421C157.923 157.432 157.919 157.44 157.919 157.446C157.919 157.473 157.91 157.494 157.908 157.527C157.902 157.543 157.902 157.564 157.9 157.587C157.9 157.589 157.9 157.593 157.9 157.593C157.894 157.622 157.894 157.657 157.885 157.691C157.885 157.722 157.877 157.75 157.875 157.777C157.867 157.813 157.865 157.846 157.861 157.881C157.861 157.891 157.861 157.895 157.861 157.898C157.861 157.904 157.858 157.918 157.858 157.925C157.854 157.945 157.854 157.962 157.854 157.98C157.842 158.022 157.842 158.063 157.832 158.105C157.832 158.138 157.829 158.171 157.823 158.202C157.823 158.214 157.819 158.223 157.819 158.237C157.813 158.264 157.813 158.293 157.813 158.322C157.809 158.328 157.809 158.337 157.809 158.347C157.809 158.351 157.809 158.355 157.807 158.359C157.807 158.395 157.801 158.436 157.798 158.471C157.792 158.502 157.792 158.535 157.79 158.569C157.782 158.585 157.782 158.596 157.78 158.614C157.776 158.647 157.774 158.683 157.771 158.72C157.771 158.72 157.771 158.728 157.771 158.73C157.771 158.738 157.765 158.755 157.761 158.767C157.761 158.788 157.759 158.809 157.759 158.83C157.759 158.854 157.759 158.881 157.749 158.904C157.747 158.935 157.747 158.966 157.74 158.993C157.74 159.003 157.74 159.014 157.734 159.026C157.734 159.053 157.734 159.082 157.728 159.109C157.722 159.142 157.722 159.173 157.715 159.198C157.715 159.248 157.707 159.293 157.707 159.343C157.703 159.362 157.703 159.383 157.697 159.401C157.697 159.438 157.695 159.474 157.695 159.511C157.695 159.527 157.689 159.542 157.689 159.559C157.682 159.594 157.682 159.635 157.68 159.672C157.672 159.735 157.664 159.803 157.664 159.869C157.657 159.921 157.649 159.971 157.649 160.016C157.647 160.095 157.637 160.159 157.633 160.23C157.633 160.256 157.631 160.285 157.629 160.308C157.624 160.308 157.624 160.308 157.624 160.308C157.61 160.511 157.596 160.729 157.583 160.944C157.709 160.99 157.84 161.023 157.97 161.068C158.213 161.153 158.453 161.236 158.693 161.337C159.942 161.826 161.199 162.485 162.419 163.303L162.466 163.332C162.62 163.433 162.771 163.533 162.916 163.642C163.837 164.287 164.751 165.043 165.654 165.877C165.699 165.919 165.747 165.966 165.795 166.01C165.821 166.033 165.853 166.062 165.873 166.084C165.873 165.682 165.867 165.285 165.873 164.904C165.873 164.875 165.873 164.852 165.873 164.821C165.873 164.616 165.877 164.409 165.88 164.206C165.88 164.144 165.881 164.082 165.884 164.021C165.888 163.862 165.89 163.698 165.898 163.541C165.9 163.462 165.904 163.382 165.904 163.299C165.906 163.164 165.913 163.034 165.919 162.905C165.927 162.814 165.927 162.727 165.929 162.64C165.935 162.524 165.939 162.41 165.944 162.298C165.946 162.207 165.954 162.114 165.958 162.023C165.968 161.922 165.971 161.824 165.979 161.729C165.985 161.636 165.993 161.543 165.995 161.447C166.002 161.362 166.01 161.279 166.01 161.195C166.018 161.103 166.027 161.01 166.035 160.917C166.041 160.847 166.045 160.776 166.053 160.702C166.056 160.609 166.068 160.519 166.068 160.433C166.078 160.368 166.084 160.308 166.087 160.25C166.095 160.161 166.105 160.072 166.109 159.991C166.118 159.937 166.118 159.886 166.124 159.836C166.136 159.755 166.14 159.672 166.149 159.596C166.149 159.556 166.155 159.519 166.159 159.484C166.169 159.401 166.176 159.324 166.184 159.252C166.188 159.225 166.194 159.204 166.194 159.177C166.203 159.099 166.209 159.02 166.219 158.962C166.221 158.945 166.221 158.935 166.225 158.921C166.24 158.769 166.259 158.635 166.273 158.538C166.273 158.535 166.273 158.529 166.273 158.523C166.273 158.508 166.279 158.488 166.279 158.475H166.283C166.287 158.442 166.29 158.415 166.294 158.39C166.294 158.38 166.294 158.372 166.294 158.362C166.296 158.357 166.296 158.357 166.296 158.353V158.349C166.296 158.341 166.296 158.341 166.296 158.341C166.296 158.339 166.296 158.33 166.296 158.33L166.331 158.142C166.335 158.119 166.335 158.096 166.339 158.071C167.503 150.875 170.496 145.985 175.008 143.931C177.695 142.701 180.288 142.756 181.99 143.019C183.531 143.253 184.984 143.769 186.078 144.459C186.078 144.463 186.086 144.463 186.088 144.465C188.586 146.047 189.456 147.83 188.909 150.241C188.816 150.651 188.681 151.078 188.511 151.509C188.472 151.602 188.433 151.699 188.395 151.794C188.371 151.856 188.342 151.917 188.315 151.974C188.309 151.991 188.309 152.003 188.3 152.014C187.045 154.832 184.372 157.889 181.103 160.2C181.025 160.252 180.956 160.304 180.884 160.35C180.857 160.368 180.838 160.383 180.816 160.397C180.642 160.519 180.464 160.635 180.292 160.749L180.213 160.801C180.053 160.901 179.896 161.002 179.739 161.095C176.123 163.583 174.7 163.475 175.091 162.238C175.214 161.857 179.353 159.733 179.554 159.608C179.72 159.5 179.884 159.393 180.045 159.277L180.329 159.088C181.081 158.554 181.801 157.983 182.481 157.376C184.525 155.549 186.163 153.453 187.053 151.486C187.058 151.467 187.068 151.444 187.078 151.422C187.08 151.409 187.087 151.397 187.099 151.382C187.006 151.376 186.915 151.366 186.823 151.362C186.594 151.349 186.374 151.339 186.15 151.333C185.939 151.326 185.724 151.322 185.515 151.322C185.289 151.318 185.065 151.318 184.839 151.322C184.62 151.328 184.403 151.332 184.189 151.339C183.964 151.355 183.74 151.361 183.512 151.372C183.297 151.388 183.077 151.405 182.86 151.426C182.636 151.446 182.416 151.467 182.185 151.49C181.967 151.515 181.75 151.542 181.53 151.573C181.31 151.604 181.091 151.633 180.874 151.668C180.646 151.705 180.422 151.747 180.198 151.79C179.991 151.83 179.782 151.865 179.571 151.91C179.324 151.958 179.078 152.018 178.832 152.08C178.655 152.121 178.477 152.159 178.301 152.209C177.881 152.314 177.469 152.436 177.059 152.565C175.421 153.091 173.963 153.743 172.687 154.497C172.66 154.507 172.637 154.522 172.616 154.54C172.476 154.619 172.341 154.706 172.204 154.787C172.182 154.804 172.155 154.822 172.128 154.839C171.875 155.006 171.631 155.17 171.393 155.342C171.345 155.383 171.291 155.416 171.243 155.454C171.131 155.533 171.024 155.617 170.918 155.702C170.854 155.75 170.788 155.798 170.728 155.854C170.603 155.957 170.481 156.059 170.363 156.164C170.255 156.264 170.144 156.359 170.04 156.458C169.966 156.525 169.893 156.599 169.823 156.672C169.742 156.752 169.663 156.827 169.587 156.914C169.522 156.98 169.464 157.048 169.398 157.113C169.288 157.233 169.187 157.359 169.079 157.481C169.042 157.529 169.001 157.574 168.969 157.622C168.86 157.759 168.754 157.895 168.65 158.032C168.619 158.084 168.578 158.13 168.547 158.185C168.454 158.312 168.365 158.44 168.284 158.583C168.263 158.616 168.236 158.649 168.216 158.683C168.112 158.856 168.011 159.028 167.923 159.206C167.907 159.229 167.893 159.25 167.886 159.271C167.803 159.432 167.723 159.592 167.654 159.751C167.646 159.772 167.632 159.792 167.625 159.809C167.625 159.809 167.625 159.809 167.627 159.815C167.538 160.014 167.455 160.219 167.383 160.432C166.501 162.955 166.907 165.662 168.514 168.048C169.176 169.038 170.726 170.763 173.654 171.21C174.861 171.396 176.176 171.341 177.572 171.044C179.792 170.58 182.28 169.477 184.707 167.923C184.765 167.89 184.817 167.863 184.877 167.828C185.684 167.31 186.503 166.714 187.335 166.057C187.372 166.032 187.41 166.004 187.441 165.979C187.642 165.817 187.844 165.653 188.045 165.486C188.079 165.461 188.112 165.43 188.141 165.405C188.358 165.225 188.569 165.038 188.779 164.854C188.826 164.815 188.868 164.775 188.913 164.736C189.129 164.545 189.346 164.347 189.563 164.146C189.595 164.115 189.628 164.084 189.663 164.05C189.76 163.955 189.855 163.864 189.949 163.771C190.083 163.64 190.224 163.508 190.355 163.375C190.504 163.222 190.659 163.069 190.81 162.911C190.864 162.862 190.906 162.806 190.959 162.756C191.347 162.346 191.73 161.926 192.103 161.491C193.944 159.337 195.511 156.897 196.481 154.271C196.63 153.872 196.76 153.468 196.88 153.062C196.887 153.033 196.901 153 196.909 152.964C196.971 152.739 197.034 152.511 197.085 152.289C197.087 152.252 197.106 152.217 197.114 152.179C197.121 152.157 197.121 152.138 197.127 152.117C197.176 151.894 197.22 151.672 197.264 151.446C197.274 151.384 197.29 151.32 197.297 151.256C197.317 151.134 197.336 151.011 197.357 150.889C197.359 150.867 197.363 150.84 197.363 150.813C198.063 145.884 196.189 141.53 191.999 138.324C191.989 138.316 191.972 138.302 191.962 138.293C191.831 138.194 191.686 138.088 191.547 137.983C191.498 137.954 191.446 137.916 191.4 137.887C191.285 137.803 191.179 137.73 191.067 137.656C190.957 137.579 190.837 137.504 190.715 137.424C190.669 137.393 190.62 137.361 190.572 137.333C188.497 136.03 185.871 135.077 183.185 134.665C179.2 134.037 175.158 134.593 171.515 136.256Z" fill="#848484"/>
<path d="M205.552 173.701C204.222 177.941 209.685 178.74 211.005 172.929C212.146 167.915 210.938 157.102 202.578 153.033C202.047 152.78 201.729 153.621 202.182 153.998C205.477 156.773 209.019 162.51 205.552 173.701Z" fill="#848484"/>
<path d="M194.497 135.357C200.877 139.629 200.565 145.169 199.281 148.936C199.177 149.245 199.633 149.57 199.776 149.272C203.543 141.52 199.687 133.458 197.75 132.093C194.424 129.38 192.02 133.712 194.497 135.357Z" fill="#848484"/>
<path d="M141.493 171.088C142.531 161.944 147.564 160.08 151.453 160.054C151.786 160.054 151.954 159.542 151.625 159.476C142.527 157.597 136.318 162.009 135.313 168.155C134.148 175.277 141.038 175.344 141.493 171.088Z" fill="#848484"/>
<path d="M155.386 153.809C156.102 146.205 159.905 132.111 178.229 131.47C183.092 131.96 182.856 124.246 175.363 125.109C165.846 126.195 151.144 137.61 154.027 153.961C154.168 154.75 155.311 154.609 155.386 153.809Z" fill="#848484"/>
<path d="M209.897 145.795C207.511 142.684 203.909 146.803 204.338 147.98C205.115 150.125 212.278 148.903 209.897 145.795Z" fill="#848484"/>
<path d="M152.391 155.435C151.474 151.682 150.04 147.748 146.758 151.225C143.14 155.062 153.309 159.182 152.391 155.435Z" fill="#848484"/>
</svg>
