<svg width="350" height="350" viewBox="0 0 350 350" fill="none" xmlns="http://www.w3.org/2000/svg">
<path fill-rule="evenodd" clip-rule="evenodd" d="M62.75 181.715V154.001H76.9446V158.274H68.5248V165.355H76.585V169.629H68.5248V181.715H62.75ZM87.2901 179.762H87.1695C86.0871 181.472 84.6428 182.204 82.7183 182.204C80.1916 182.204 77.9063 180.617 77.9063 177.932V162.426H83.1997V175.857C83.1997 177.564 83.5605 178.786 85.2437 178.786C86.9269 178.786 87.2889 177.564 87.2889 175.857V162.426H92.5823V177.931C92.5823 179.153 92.703 180.496 92.8225 181.715H87.2889V179.762H87.2901ZM99.6808 162.426V164.868C100.644 162.671 102.446 161.937 104.612 161.937V166.82C99.9209 166.454 99.921 169.262 99.921 171.215V181.715H94.5081V162.426H99.6808ZM110.987 164.379H111.107C112.07 162.548 113.513 161.937 115.559 161.937C118.085 161.937 120.371 163.524 120.371 166.21V181.715H114.958V168.408C114.958 166.699 114.716 165.355 113.033 165.355C111.228 165.355 110.988 166.697 110.988 168.408V181.715H105.695V162.426H110.988V164.379H110.987ZM122.415 162.426H127.708V181.715H122.415V162.426ZM122.415 154.001H127.708V158.274H122.415V154.001ZM128.43 162.426H130.474V159.251L135.887 156.932V162.426H138.653V165.721H135.887V176.1C135.887 177.564 135.887 178.542 137.571 178.542C137.932 178.542 138.293 178.542 138.534 178.419V181.715C137.812 181.839 137.091 181.959 135.767 181.959C131.196 181.959 130.474 178.786 130.474 177.688V165.721H128.43V162.426ZM148.879 179.762H148.759C147.797 181.472 146.353 182.204 144.307 182.204C141.782 182.204 139.497 180.617 139.497 177.932V162.426H144.91V175.857C144.91 177.564 145.15 178.786 146.834 178.786C148.519 178.786 148.879 177.564 148.879 175.857V162.426H154.172V177.931C154.172 179.153 154.292 180.496 154.412 181.715H148.879V179.762ZM161.99 162.426V164.868H162.111C163.074 162.671 164.878 161.937 167.044 161.937V166.82C162.352 166.454 162.232 169.262 162.232 171.215V181.715H156.94V162.426H161.99Z" fill="#848484"/>
<path fill-rule="evenodd" clip-rule="evenodd" d="M172.215 172.926C172.215 175.247 172.215 178.664 174.621 178.664C176.546 178.664 176.908 176.833 176.908 175.247H182.321C182.199 177.321 181.478 179.031 180.274 180.251C178.952 181.473 177.148 182.204 174.621 182.204C167.765 182.204 166.802 177.932 166.802 171.827C166.802 166.455 167.524 161.938 174.621 161.938C181.838 161.938 182.561 166.7 182.44 172.926H172.215ZM177.026 169.873C177.026 168.041 177.148 165.355 174.62 165.355C172.095 165.355 172.214 168.286 172.214 169.873H177.026ZM191.943 181.715V154.001H202.049C206.377 154.001 209.987 155.343 209.987 161.204C209.987 164.378 208.423 166.697 205.295 167.308V167.431C209.385 167.918 210.467 170.605 210.467 174.39C210.467 181.471 204.455 181.715 202.049 181.715H191.943ZM197.596 177.444H200.845C202.049 177.444 204.695 177.444 204.695 173.536C204.695 171.094 203.853 169.629 200.966 169.629H197.598V177.444H197.596ZM197.596 165.355H201.447C202.648 165.355 204.455 164.5 204.455 161.815C204.455 159.739 203.01 158.274 201.086 158.274H197.598V165.355H197.596ZM216.722 162.426V164.868H216.844C217.806 162.671 219.611 161.937 221.777 161.937V166.82C217.084 166.454 216.964 169.262 216.964 171.215V181.715H211.672V162.426H216.722ZM237.173 178.175C237.173 179.397 237.413 180.617 237.533 181.715H232.481L232.241 179.153C231.037 181.228 229.474 182.204 227.189 182.204C223.458 182.204 222.135 179.398 222.135 175.978C222.135 169.508 227.068 169.263 232.001 169.385V167.92C232.001 166.211 231.76 164.99 229.836 164.99C228.03 164.99 227.79 166.455 227.79 167.92H222.617C222.617 165.6 223.34 164.135 224.541 163.281C225.746 162.304 227.549 161.938 229.595 161.938C236.331 161.938 237.173 164.991 237.173 168.532V178.175ZM227.43 175.733C227.43 177.075 227.549 178.786 229.354 178.786C232.481 178.786 232.001 174.512 232.001 172.436C229.354 172.559 227.43 172.315 227.43 175.733ZM244.029 164.379C245.112 162.548 246.556 161.937 248.482 161.937C251.128 161.937 253.292 163.524 253.292 166.21V181.715H247.997V168.408C247.997 166.699 247.637 165.355 245.953 165.355C244.268 165.355 243.909 166.697 243.909 168.408V181.715H238.614V162.426H243.909V164.379H244.029ZM264.839 181.715V179.641H264.717C263.755 181.472 262.311 182.203 260.267 182.203C254.732 182.203 254.854 175.977 254.854 171.948C254.854 168.04 254.732 161.936 260.146 161.936C262.071 161.936 263.394 162.546 264.477 164.255V154H269.89V181.714H264.839V181.715ZM264.477 171.949C264.477 168.041 264.598 165.355 262.433 165.355C260.027 165.355 260.146 168.041 260.146 171.949C260.146 176.709 260.508 178.786 262.433 178.786C264.236 178.786 264.477 176.709 264.477 171.949ZM276.869 175.489C276.747 176.465 276.869 177.32 277.109 177.931C277.349 178.542 277.951 178.786 279.033 178.786C280.116 178.786 280.955 178.054 280.955 176.833C280.955 172.681 271.573 173.658 271.573 167.432C271.573 163.281 275.663 161.938 279.151 161.938C282.76 161.938 286.009 163.77 285.769 167.921H280.596C280.596 166.579 280.356 165.846 279.994 165.479C279.632 165.113 279.272 164.991 278.671 164.991C277.467 164.991 276.867 165.846 276.867 167.066C276.867 170.118 286.25 169.997 286.25 176.223C286.25 179.642 283.483 182.205 279.033 182.205C274.46 182.205 271.334 180.986 271.574 175.492H276.869V175.489ZM63.7129 187.82H65.3973V195.756H63.7129V187.82ZM76.8252 187.82H79.23L83.6812 193.925V187.82H85.3656V195.756H82.9596L78.3889 189.53V195.756H76.8252V187.82ZM103.409 187.82V189.164H100.402V195.756H98.718V189.164H95.7099V187.82H103.409ZM120.009 189.164H115.438V190.994H119.769V192.337H115.438V194.534H120.129V195.756H113.754V187.82H120.009V189.164ZM131.196 187.82H135.888C137.572 187.82 138.896 188.432 138.896 190.017C138.896 191.36 137.933 191.971 136.731 191.971V192.092C138.535 192.092 138.656 192.947 138.775 194.413C138.775 195.024 138.896 195.511 139.016 195.755H137.092C136.971 195.511 136.971 195.023 136.971 194.533C136.851 192.946 136.49 192.702 134.807 192.702H132.882V195.755H131.198V187.82H131.196ZM132.881 191.361H135.166C136.249 191.361 137.091 191.237 137.091 190.262C137.091 189.288 136.249 189.164 135.287 189.164H132.881V191.361ZM149.962 187.82H152.488L156.938 193.925V187.82H158.502V195.756H156.096L151.525 189.53V195.756H149.962V187.82ZM172.816 187.82H174.981L179.071 195.756H176.907L176.064 194.047H171.493L170.65 195.756H168.846L172.816 187.82ZM175.463 192.704L173.779 189.288L172.215 192.704H175.463ZM196.274 187.82V189.164H193.266V195.756H191.581V189.164H188.576V187.82H196.274ZM206.86 187.82H208.542V195.756H206.86V187.82ZM224.182 187.577C227.068 187.577 228.752 189.04 228.752 191.848C228.752 194.657 227.068 196 224.182 196C221.293 196 219.611 194.658 219.611 191.848C219.611 189.039 221.293 187.577 224.182 187.577ZM224.182 194.658C225.864 194.658 226.946 193.682 226.946 191.85C226.946 189.896 225.864 188.92 224.182 188.92C222.497 188.92 221.415 189.896 221.415 191.85C221.414 193.682 222.497 194.658 224.182 194.658ZM239.579 187.82H242.104L246.555 193.925V187.82H248.119V195.756H245.832L241.261 189.53H241.142V195.756H239.579V187.82ZM262.433 187.82H264.717L268.688 195.756H266.641L265.68 194.047H261.227L260.387 195.756H258.463L262.433 187.82ZM265.079 192.704L263.394 189.288L261.831 192.704H265.079ZM279.034 187.82H280.716V194.534H285.047V195.756H279.034V187.82Z" fill="#848484"/>
</svg>
