<svg width="350" height="350" viewBox="0 0 350 350" fill="none" xmlns="http://www.w3.org/2000/svg">
<path d="M169.048 183.551L135.209 160.751C133.258 159.477 130.925 158.735 128.42 158.735C121.561 158.735 115.998 164.289 115.998 171.142C115.998 177.994 121.559 183.548 128.42 183.548H169.048V183.551Z" fill="#848484"/>
<path d="M131.851 155.631L167.247 179.632L149.953 140.213C149.012 138.083 147.462 136.194 145.364 134.832C139.617 131.102 131.932 132.734 128.2 138.478C124.47 144.221 126.104 151.901 131.851 155.631Z" fill="#848484"/>
<path d="M221.552 158.724C219.041 158.724 216.704 159.466 214.747 160.741L180.828 183.563H221.55C228.426 183.563 234 178.003 234 171.144C234.002 164.285 228.428 158.724 221.552 158.724Z" fill="#848484"/>
<path d="M182.644 179.654L218.119 155.631C223.879 151.897 225.515 144.21 221.775 138.461C218.034 132.71 210.332 131.078 204.573 134.811C202.47 136.175 200.915 138.066 199.974 140.196L182.644 179.654Z" fill="#848484"/>
<path d="M179.428 130.715C181.299 130.807 182.283 131.303 179.92 132.287C179.034 132.973 176.604 133.348 177.128 137.676L182.379 174.397L199.889 134.37C202.689 128.103 199.861 120.757 193.573 117.968C187.285 115.179 179.922 117.996 177.124 124.264C176.185 126.367 175.879 128.591 176.125 130.723L179.428 130.715Z" fill="#848484"/>
<path d="M167.544 174.371L173.706 131.299C174.078 129 173.807 126.568 172.786 124.281C169.993 118.019 162.642 115.202 156.369 117.991C150.096 120.78 147.275 128.116 150.068 134.381L167.544 174.371Z" fill="#848484"/>
<path d="M195.391 211.393C195.391 223.389 205.661 233.114 218.329 233.114C221.101 233.114 224.091 232.287 226.104 231.465V223.227C223.879 224.679 221.187 225.524 218.329 225.524C210.508 225.524 204.169 219.197 204.169 211.393C204.169 203.589 210.508 197.262 218.329 197.262C221.202 197.262 223.871 198.116 226.104 199.583V191.278C224.046 190.335 221.056 189.67 218.329 189.67C205.659 189.672 195.391 199.397 195.391 211.393Z" fill="#848484"/>
<path d="M149.887 213.867L123.961 190.193V231.685H132.384V208.918L158.308 232.594V191.09H149.887V213.867Z" fill="#848484"/>
<path d="M186.526 209.992C189.097 208.086 191.336 206.271 191.315 201.476C191.287 195.166 186.182 191.051 179.851 191.051H163.138V231.726H181.883C188.521 231.726 193.573 226.689 193.573 220.072C193.571 213.455 188.102 210.567 186.526 209.992ZM171.606 197.2H177.866C180.796 197.2 183.172 199.568 183.172 202.489C183.172 205.409 180.796 207.778 177.866 207.778H171.606V197.2ZM179.226 225.62H171.606V213.855L179.226 213.82C182.492 213.82 185.142 216.462 185.142 219.719C185.142 222.979 182.494 225.62 179.226 225.62Z" fill="#848484"/>
</svg>
