<svg width="350" height="350" viewBox="0 0 350 350" fill="none" xmlns="http://www.w3.org/2000/svg">
<path fill-rule="evenodd" clip-rule="evenodd" d="M254.615 154.422C254.615 154.339 254.595 154.203 254.714 154.197C255.142 154.179 255.318 154.344 255.318 154.665C255.318 155.059 255.063 155.173 254.725 155.156L254.615 154.422V154.422ZM212.238 161.135C208.706 161.135 207 163.865 207 169.564C208.705 169.627 210.413 169.747 212.116 169.747C213.821 169.747 215.527 169.627 217.233 169.564C217.234 165.987 216.748 161.135 212.238 161.135ZM196.175 166.532H193.984L193.377 163.015C193.132 161.742 190.327 160.649 188.379 160.649C184.846 160.649 182.714 161.985 182.714 164.592C182.714 166.532 183.748 167.504 186.064 167.99L191.06 169.082C195.996 170.173 198.796 172.052 198.796 177.029C198.796 184.063 192.278 187.338 186.002 187.338C182.837 187.338 179.667 186.794 176.498 185.642L176.926 177.09H179.3L179.606 181.275C181.373 183.58 183.931 184.426 186.793 184.426C189.535 184.426 192.034 182.788 192.034 179.88C192.034 177.208 190.45 176.48 188.197 175.937L182.958 174.664C178.695 173.631 176.498 171.023 176.498 167.2C176.498 160.287 181.921 157.74 189.047 157.74C191.79 157.74 194.47 158.043 196.664 159.135L196.175 166.532V166.532ZM173.107 166.532H170.915L170.308 163.015C170.061 161.742 167.259 160.649 165.311 160.649C161.778 160.649 159.646 161.985 159.646 164.592C159.646 166.532 160.68 167.504 162.996 167.99L167.99 169.082C172.926 170.173 175.728 172.052 175.728 177.029C175.728 184.063 169.21 187.338 162.935 187.338C160.05 187.338 157.168 186.886 154.282 185.935V186.49C152.334 186.429 150.69 186.307 148.922 186.307C147.217 186.307 145.512 186.429 143.379 186.49L143.076 186.003L143.379 182.244L137.715 186.612C136.801 187.338 135.46 187.338 134.363 187.338C129.856 187.338 127.602 184.247 127.602 179.937C127.602 177.573 128.332 174.903 130.403 173.508C132.658 171.992 135.4 171.264 138.018 170.717L143.379 169.627C143.379 165.379 141.611 162.469 137.044 162.469C136.007 162.469 133.876 162.772 133.632 163.319L132.294 166.351L130.467 165.926V161.742L133.692 159.798C136.313 158.224 138.81 157.74 140.76 157.74C146.119 157.74 150.992 160.104 150.812 166.594C150.752 169.082 150.629 171.566 150.629 174.055C150.629 176.541 150.752 179.087 150.812 181.575C150.872 183.092 151.236 183.939 152.456 184.062L153.505 184.164L153.857 177.089H156.232L156.536 181.274C158.304 183.579 160.863 184.425 163.726 184.425C166.467 184.425 168.966 182.787 168.966 179.879C168.966 177.207 167.381 176.479 165.127 175.936L159.888 174.663C155.622 173.63 153.43 171.022 153.43 167.199C153.43 160.286 158.851 157.74 165.98 157.74C168.722 157.74 171.401 158.042 173.593 159.134L173.107 166.532V166.532ZM143.379 179.331V172.175L140.637 172.902C137.409 173.813 135.033 174.481 135.033 178.423C135.033 180.968 136.495 182.061 138.323 182.061C140.151 182.062 142.648 180.483 143.379 179.331ZM93 147.247V145.002C97.02 145.062 100.128 145.184 102.504 145.184C106.707 145.184 110.177 145.062 114.867 145.002C120.472 144.942 126.443 146.337 126.443 153.189C126.443 159.378 121.205 161.44 115.601 163.32C123.397 163.745 127.845 166.473 127.845 173.508C127.845 180.969 120.838 186.731 110.911 186.489C108.17 186.428 105.246 186.306 102.321 186.306C99.7628 186.306 97.2637 186.428 95.0091 186.489V185.094L96.9604 184C97.9342 183.456 98.1779 182.426 98.1779 180.546V153.371C98.1779 150.824 98.1183 149.186 97.751 148.459C97.4477 147.852 96.8403 147.55 95.2563 147.426L93 147.247V147.247ZM106.767 148.277V162.045H108.597C114.018 162.045 117.427 160.408 117.427 154.524C117.427 149.792 114.931 148.034 110.485 148.034C109.267 148.034 108.046 148.093 106.767 148.277ZM254.615 155.298C254.805 155.298 254.909 155.283 254.988 155.377C255.042 155.442 255.118 155.609 255.193 155.786C255.271 155.962 255.351 156.14 255.409 156.223L255.995 156.316C255.896 156.199 255.851 156.176 255.806 156.11C255.739 156.017 255.664 155.846 255.614 155.745C255.522 155.538 255.402 155.266 255.158 155.223C255.469 155.166 255.733 154.957 255.733 154.61C255.731 154.521 255.708 154.434 255.666 154.357C255.623 154.279 255.563 154.212 255.491 154.161C255.313 154.05 255.052 154.062 254.849 154.062H253.95C254.188 154.185 254.204 154.211 254.204 154.356V156.04L253.943 156.2L254.87 156.317C254.631 156.189 254.615 156.14 254.615 156.017V155.298ZM254.897 153.478C255.858 153.478 256.63 154.262 256.63 155.249C256.63 156.222 255.851 157.017 254.897 157.017C253.95 157.017 253.178 156.222 253.178 155.249C253.178 154.268 253.943 153.478 254.897 153.478ZM254.897 153.147C253.767 153.147 252.848 154.092 252.848 155.255C252.848 156.409 253.767 157.348 254.897 157.348C256.034 157.348 256.961 156.409 256.961 155.255C256.961 154.086 256.034 153.147 254.897 153.147ZM106.767 165.2V182.911C107.987 183.155 108.9 183.155 110.058 183.155C116.576 183.155 118.708 179.331 118.708 173.994C118.708 167.201 114.812 165.2 108.597 165.2H106.767ZM227.714 179.635V163.925L224.226 164.142C224.711 165.385 224.971 166.813 224.971 168.415V171.566C221.68 172.477 218.025 172.782 215.346 172.782H207.367C207.367 178.666 210.716 183.032 217.051 183.032C219.063 183.032 221.68 182.062 223.631 180.909L224.362 181.819L223.023 184.731C219.366 186.671 216.869 187.337 213.276 187.337C204.383 187.337 199.449 182.002 199.449 173.327C199.449 168.351 200.118 163.865 205.236 160.832L208.1 159.134C209.62 158.225 211.267 157.74 213.092 157.74C217.939 157.74 221.935 159.572 223.815 163.222V162.835L227.835 160.228V156.588C227.835 154.707 227.715 152.887 227.592 151.007C230.273 150.037 233.196 148.821 235.024 147.974L235.879 148.579C235.391 151.006 235.148 154.038 235.148 156.83V160.347L242.09 159.983L242.013 160.618L242.621 160.228V156.588C242.621 154.707 242.497 152.887 242.378 151.007C245.056 150.037 247.982 148.821 249.809 147.974L250.66 148.579C250.175 151.006 249.932 154.038 249.932 156.83V160.347L256.876 159.983L256.388 163.925H249.932V178.361C249.932 181.457 250.967 182.305 253.708 182.305C254.988 182.305 255.66 181.941 256.51 181.517L257 182.669L254.014 186.246C253.588 186.795 252.245 187.339 250.298 187.339C244.754 187.339 242.5 185.096 242.5 179.637V163.927L238.603 164.169V163.927H235.151V178.363C235.151 181.459 236.185 182.306 238.926 182.306C240.207 182.306 240.876 181.943 241.73 181.519L242.217 182.671L239.231 186.248C238.803 186.797 237.466 187.341 235.514 187.341C229.965 187.338 227.714 185.094 227.714 179.635V179.635ZM94.825 194.344H253.903V199.402H94.825V194.344ZM94.825 202.653H253.903V205H94.825V202.653Z" fill="#848484"/>
</svg>
