<svg width="350" height="350" viewBox="0 0 350 350" fill="none" xmlns="http://www.w3.org/2000/svg">
<path d="M138.441 170.106C140.592 170.106 142.336 168.396 142.336 166.287C142.336 164.178 140.592 162.469 138.441 162.469C136.289 162.469 134.545 164.178 134.545 166.287C134.545 168.396 136.289 170.106 138.441 170.106V170.106ZM267.015 183.152C266.422 182.744 265.965 182.676 265.585 183.469C259.042 197.356 248.015 190.427 249.11 191.036C251.556 189.94 257.989 184.885 257.017 177.905C256.426 173.639 252.69 171.747 248.724 172.424C241.801 173.607 239.254 180.924 240.551 187.402C240.777 188.514 241.183 189.432 241.588 190.33C233.765 196.564 230.658 184.75 230.305 183.338C230.291 183.263 236.346 178.317 238.03 166.534C239.795 154.183 235.774 151.935 231.663 152.005C224.055 152.135 221.999 167.711 224.761 180.692C224.529 180.751 223.453 181.336 221.723 181.401C220.478 177.563 215.16 174.199 213.768 175.495C210.284 178.738 214.612 185.078 217.658 185.576C215.829 196.618 204.386 193.884 206.516 180.049C210.242 173.268 213.076 163.186 212.57 157.1C212.391 154.945 210.765 152.058 207.088 152.201C200.016 152.475 199.247 168.056 200.076 179.114C200.035 178.842 199.641 180.458 196.743 181.261C196.058 177.532 189.931 173.79 188.489 175.589C185.789 178.957 190.468 184.962 192.684 185.38C190.854 196.423 179.412 193.688 181.542 179.853C185.268 173.073 188.102 162.991 187.596 156.905C187.417 154.749 185.792 151.862 182.114 152.005C175.042 152.28 174.273 167.86 175.102 178.918C175.06 178.642 174.658 180.311 171.641 181.101C171.54 176.263 165.391 174.045 163.914 175.589C161.281 178.34 164.517 183.985 167.51 185.38C165.68 196.423 154.238 193.688 156.368 179.853C160.094 173.073 162.928 162.991 162.422 156.905C162.243 154.749 160.618 151.862 156.94 152.005C149.868 152.28 149.299 168.643 150.128 179.701C147.799 189.481 139.987 201.694 141.002 177.229C141.102 175.512 141.211 174.861 140.338 174.218C139.684 173.719 138.196 173.959 137.383 173.979C136.394 174.018 136.146 174.584 135.928 175.441C135.419 177.653 135.328 179.798 135.255 182.724C135.207 184.092 135.095 184.731 134.557 186.597C134.02 188.463 130.955 191.874 129.277 191.303C126.949 190.519 127.713 184.079 128.149 179.655C128.513 176.158 127.349 174.588 124.366 174.017C122.62 173.661 121.559 173.715 119.741 173.154C118.022 172.622 117.633 169.435 113.965 170.497C111.959 171.079 113.249 175.244 112.767 178.33C110.397 193.514 105.465 193.931 103.177 186.555C113.481 161.826 106.158 152.077 101.871 152.077C97.4059 152.077 92.302 155.09 94.4633 174.373C93.4124 174.072 93.0893 173.911 91.9389 173.911C85.4327 173.911 81 179.064 81 185.422C81 191.78 85.4331 196.934 91.9392 196.934C95.78 196.934 98.4766 195.222 100.519 192.575C101.851 194.444 103.474 196.963 106.441 196.849C115.286 196.512 117.858 178.734 118.162 177.743C119.107 177.886 120.002 178.156 120.875 178.299C122.329 178.513 122.435 179.077 122.402 180.511C122.017 192.602 124.294 196.835 129.458 196.835C132.336 196.835 134.901 194.065 136.668 192.083C137.987 194.752 140.09 196.753 142.911 196.835C149.747 197.001 152.365 186.325 152.126 187.73C151.939 188.832 154.344 196.775 161.381 196.803C170.099 196.839 171.719 187.446 171.912 185.872C171.936 185.559 171.947 185.592 171.912 185.872L171.906 185.968C174.673 185.463 176.101 184.009 176.101 184.009C176.101 184.009 178.323 196.949 186.555 196.804C195.103 196.652 196.715 188.161 196.926 186.505C196.954 186.112 196.971 186.158 196.926 186.505C196.925 186.521 196.924 186.537 196.923 186.553C200.211 185.381 201.075 184.205 201.075 184.205C201.075 184.205 202.842 196.888 211.529 196.999C219.271 197.098 222.14 189.33 222.157 186.078C223.463 186.092 225.878 185.319 225.822 185.275C225.822 185.275 228.657 196.364 236.576 196.934C240.295 197.201 243.084 194.884 244.674 193.827C248.41 196.792 260.852 200.579 268.709 187.527C269.818 185.654 267.433 183.441 267.015 183.152V183.152ZM91.6253 192.629C87.8293 192.629 85.3952 189.189 85.3952 185.481C85.3952 181.773 87.6296 178.333 91.4255 178.333C93.1337 178.333 94.084 178.517 95.4143 179.651C95.6555 180.583 96.3392 182.731 96.6719 183.707C97.1177 185.013 97.6479 186.124 98.1825 187.334C97.4188 190.437 94.9149 192.629 91.6253 192.629V192.629ZM100.875 179.76C100.718 179.514 100.751 179.665 100.574 179.432C99.8782 177.578 98.5372 173.438 98.3819 168.736C98.2064 163.416 99.1111 157.181 101.778 157.181C103.586 157.181 105.506 169.817 100.875 179.76H100.875ZM154.324 174.218C153.895 171.061 153.873 156.989 157.321 157.377C159.224 158.133 156.114 171.411 154.324 174.218ZM179.498 174.218C179.069 171.061 179.047 156.989 182.495 157.377C184.398 158.133 181.288 171.411 179.498 174.218ZM204.472 174.414C204.043 171.257 204.021 157.185 207.468 157.573C209.372 158.328 206.261 171.607 204.472 174.414ZM232.043 156.553C235.195 156.233 235.065 169.721 228.738 178.236C227.923 175.158 226.672 157.61 232.043 156.553V156.553ZM245.291 185.576C244.279 180.565 246.895 177.274 249.591 176.913C250.534 176.765 251.9 177.364 252.172 178.482C252.62 180.59 252.107 183.717 246.072 187.685C246.081 187.719 245.517 186.692 245.292 185.576H245.291Z" fill="#848484"/>
</svg>
