<svg width="350" height="350" viewBox="0 0 350 350" fill="none" xmlns="http://www.w3.org/2000/svg">
<path d="M103.039 158C104.532 158 105.909 158.118 107.172 158.466C108.435 158.7 109.468 159.166 110.387 159.749C111.305 160.332 111.994 161.148 112.453 162.199C112.912 163.247 113.142 164.531 113.142 165.93C113.142 167.562 112.797 168.962 111.994 170.012C111.305 171.06 110.157 171.993 108.779 172.693C110.731 173.276 112.223 174.324 113.142 175.724C114.06 177.124 114.634 178.873 114.634 180.855C114.634 182.486 114.29 183.887 113.716 185.053C113.142 186.219 112.223 187.269 111.19 187.968C110.157 188.669 108.894 189.252 107.516 189.601C106.139 189.949 104.761 190.184 103.384 190.184H88V158H103.039ZM102.121 171.06C103.384 171.06 104.417 170.71 105.22 170.127C106.024 169.544 106.368 168.495 106.368 167.212C106.368 166.512 106.254 165.813 106.024 165.346C105.794 164.88 105.45 164.53 104.991 164.18C104.532 163.947 104.072 163.714 103.498 163.597C102.924 163.481 102.35 163.481 101.662 163.481H95.003V171.06H102.121V171.06ZM102.465 184.82C103.154 184.82 103.843 184.703 104.417 184.588C104.991 184.47 105.565 184.237 106.024 183.887C106.483 183.537 106.828 183.187 107.172 182.604C107.402 182.021 107.631 181.32 107.631 180.505C107.631 178.873 107.172 177.707 106.254 176.889C105.335 176.19 104.072 175.841 102.58 175.841H95.003V184.82H102.465ZM124.622 184.703C125.54 185.636 126.918 186.102 128.755 186.102C130.018 186.102 131.166 185.753 132.084 185.17C133.003 184.469 133.577 183.77 133.806 183.07H139.432C138.513 185.868 137.136 187.852 135.299 189.133C133.462 190.299 131.281 191 128.64 191C126.803 191 125.196 190.649 123.704 190.066C122.211 189.483 121.063 188.668 120.03 187.502C118.997 186.452 118.193 185.17 117.734 183.653C117.16 182.137 116.93 180.505 116.93 178.638C116.93 176.889 117.16 175.258 117.734 173.741C118.308 172.225 119.112 170.943 120.145 169.777C121.178 168.728 122.441 167.795 123.818 167.212C125.311 166.629 126.803 166.279 128.64 166.279C130.592 166.279 132.314 166.629 133.806 167.445C135.299 168.261 136.447 169.194 137.365 170.594C138.284 171.876 138.972 173.391 139.432 175.025C139.661 176.657 139.776 178.29 139.661 180.155H123.015C123.015 182.021 123.704 183.77 124.622 184.703V184.703ZM131.855 172.459C131.051 171.643 129.788 171.177 128.296 171.177C127.263 171.177 126.459 171.409 125.77 171.76C125.081 172.11 124.622 172.575 124.163 173.042C123.704 173.51 123.474 174.092 123.359 174.675C123.244 175.258 123.13 175.723 123.13 176.191H133.462C133.232 174.442 132.658 173.276 131.855 172.459ZM148.616 158V170.127H148.731C149.534 168.728 150.567 167.795 151.83 167.212C153.093 166.629 154.241 166.279 155.504 166.279C157.226 166.279 158.604 166.512 159.637 166.979C160.67 167.445 161.589 168.145 162.163 168.961C162.737 169.777 163.196 170.827 163.425 171.993C163.655 173.159 163.77 174.443 163.77 175.958V190.3H157.456V177.124C157.456 175.141 157.111 173.742 156.537 172.809C155.963 171.876 154.93 171.41 153.438 171.41C151.715 171.41 150.453 171.993 149.764 172.927C148.96 173.975 148.616 175.724 148.616 178.057V190.3H142.302V158H148.616ZM168.362 170.36C169.051 169.311 169.854 168.611 170.888 167.91C171.921 167.327 173.069 166.862 174.332 166.628C175.594 166.395 176.856 166.278 178.12 166.278C179.268 166.278 180.416 166.395 181.68 166.511C182.828 166.628 183.976 166.976 184.893 167.444C185.927 167.909 186.615 168.61 187.305 169.426C187.878 170.244 188.223 171.41 188.223 172.809V185.053C188.223 186.102 188.338 187.152 188.452 188.086C188.568 189.019 188.91 189.835 189.256 190.3H182.827C182.596 190.067 182.481 189.601 182.368 189.252C182.253 188.901 182.253 188.436 182.253 188.086C181.22 189.134 180.072 189.835 178.694 190.3C177.316 190.767 175.939 190.883 174.561 190.883C173.413 190.883 172.495 190.767 171.462 190.418C170.543 190.185 169.739 189.717 168.936 189.134C168.247 188.551 167.673 187.852 167.214 186.92C166.869 185.986 166.64 185.053 166.64 183.77C166.64 182.486 166.869 181.32 167.329 180.505C167.788 179.689 168.362 178.989 169.051 178.406C169.739 177.941 170.658 177.473 171.576 177.24C172.495 177.008 173.413 176.775 174.446 176.657L177.202 176.307C178.12 176.191 178.924 176.074 179.613 175.958C180.301 175.724 180.875 175.491 181.335 175.141C181.794 174.792 181.909 174.325 181.909 173.625C181.909 172.926 181.794 172.343 181.564 171.993C181.335 171.643 180.99 171.293 180.646 171.06C180.3 170.827 179.842 170.71 179.383 170.595C178.924 170.477 178.35 170.477 177.776 170.477C176.513 170.477 175.594 170.71 174.906 171.293C174.217 171.876 173.758 172.809 173.643 173.975H167.329C167.329 172.576 167.788 171.293 168.362 170.36V170.36ZM180.874 179.456C180.531 179.572 180.072 179.689 179.611 179.806C179.152 179.923 178.693 179.923 178.119 180.039C177.661 180.155 177.087 180.155 176.627 180.272L175.249 180.622C174.79 180.739 174.33 180.972 174.101 181.205C173.756 181.438 173.527 181.788 173.297 182.138C172.954 182.604 172.954 183.071 172.954 183.654C172.954 184.237 173.069 184.703 173.298 185.053C173.528 185.403 173.758 185.754 174.102 185.986C174.446 186.219 174.906 186.337 175.365 186.452C175.824 186.568 176.282 186.569 176.856 186.569C178.12 186.569 179.037 186.337 179.726 185.986C180.416 185.521 180.874 185.053 181.22 184.47C181.564 183.887 181.794 183.304 181.794 182.721C181.909 182.138 181.909 181.673 181.909 181.322V178.873C181.564 179.106 181.22 179.34 180.874 179.456ZM197.752 166.862V170.127H197.867C198.67 168.728 199.704 167.795 200.966 167.212C202.23 166.629 203.607 166.279 204.869 166.279C206.591 166.279 207.969 166.512 209.002 166.979C210.15 167.445 210.955 168.145 211.529 168.961C212.103 169.777 212.561 170.827 212.905 171.993C213.135 173.159 213.251 174.443 213.251 175.958V190.3H206.937V177.124C206.937 175.141 206.591 173.742 206.017 172.809C205.443 171.876 204.41 171.293 202.803 171.293C201.081 171.293 199.817 171.993 199.014 173.042C198.211 174.092 197.866 175.841 197.866 178.173V190.417H191.552V166.862H197.752ZM227.369 171.06C226.337 171.06 225.532 171.293 224.845 171.761C224.156 172.226 223.582 172.809 223.123 173.627C222.664 174.326 222.434 175.143 222.203 176.075C221.975 177.009 221.975 177.824 221.975 178.759C221.975 179.574 222.09 180.508 222.203 181.323C222.434 182.257 222.662 182.955 223.123 183.655C223.582 184.356 224.041 184.939 224.73 185.404C225.419 185.87 226.221 186.105 227.254 186.105C228.748 186.105 229.896 185.638 230.813 184.821C231.618 184.006 232.192 182.84 232.307 181.323H238.391C237.933 184.471 236.785 186.803 234.831 188.437C232.881 190.068 230.355 190.886 227.254 190.886C225.532 190.886 223.925 190.536 222.548 189.953C221.054 189.37 219.906 188.554 218.874 187.504C217.842 186.455 217.036 185.172 216.462 183.773C215.888 182.257 215.659 180.74 215.659 178.991C215.659 177.125 215.888 175.492 216.462 173.976C217.036 172.461 217.726 171.061 218.758 169.895C219.791 168.729 221.054 167.913 222.433 167.213C223.924 166.63 225.531 166.28 227.368 166.28C228.747 166.28 230.01 166.514 231.271 166.863C232.533 167.213 233.682 167.796 234.601 168.495C235.634 169.196 236.438 170.127 237.012 171.293C237.586 172.343 237.931 173.742 238.045 175.258H231.845C231.619 172.459 230.126 171.06 227.369 171.06V171.06ZM121.752 160.216H134.61V163.364H121.752V160.216ZM247.92 184.703C248.84 185.636 250.331 186.102 252.053 186.102C253.317 186.102 254.465 185.753 255.382 185.17C256.302 184.469 256.876 183.77 257.104 183.07H262.616C261.696 185.868 260.32 187.852 258.482 189.133C256.644 190.299 254.464 191 251.823 191C249.987 191 248.379 190.649 246.886 190.066C245.473 189.531 244.211 188.65 243.213 187.502C242.18 186.452 241.376 185.17 240.917 183.653C240.343 182.137 240.114 180.505 240.114 178.638C240.114 176.889 240.343 175.258 240.917 173.741C241.47 172.278 242.288 170.934 243.328 169.777C244.361 168.728 245.624 167.795 247.002 167.212C248.494 166.629 250.101 166.279 251.823 166.279C253.774 166.279 255.496 166.629 256.875 167.445C258.366 168.261 259.514 169.194 260.434 170.594C261.352 171.876 262.041 173.391 262.5 175.025C262.958 176.656 263.074 178.405 262.958 180.272H246.312C246.312 182.021 247.002 183.77 247.92 184.703V184.703ZM255.267 172.459C254.464 171.643 253.2 171.177 251.709 171.177C250.675 171.177 249.871 171.409 249.182 171.76C248.493 172.11 247.919 172.575 247.576 173.042C247.232 173.51 246.886 174.092 246.772 174.675C246.658 175.258 246.544 175.723 246.544 176.191H256.876C256.53 174.442 255.956 173.276 255.267 172.459Z" fill="#848484"/>
</svg>
