<svg width="350" height="350" viewBox="0 0 350 350" fill="none" xmlns="http://www.w3.org/2000/svg">
<path fill-rule="evenodd" clip-rule="evenodd" d="M117.434 157H123.934V178.044C123.934 189.114 117.003 193 106.949 193C96.9306 193 90 189.114 90 178.044V157.844C90 157.257 90.2874 157 90.8613 157H97.3609V177.713C97.3609 184.349 100.234 187.098 106.949 187.098C113.7 187.098 116.572 184.349 116.572 177.713V157.844C116.572 157.257 116.86 157 117.434 157ZM191.012 162.756V171.627H207.458C207.746 171.627 207.853 171.774 207.746 172.068L205.95 176.613C205.771 177.017 205.519 177.2 204.98 177.2H195.321C192.161 177.2 191.012 178.19 191.012 180.353V186.621H213.275C213.563 186.621 213.67 186.769 213.563 187.062L211.695 191.791C211.516 192.194 211.264 192.377 210.725 192.377H186.344C184.477 192.377 183.758 191.717 183.758 190.288V159.457C183.758 157.734 184.692 157 187.133 157H213.275C213.563 157 213.67 157.147 213.563 157.403L211.695 162.17C211.516 162.573 211.264 162.756 210.725 162.756H191.012V162.756ZM170.364 182.589C170.364 189.664 165.481 192.377 158.622 192.377H140.452C138.549 192.377 137.867 191.717 137.867 190.288V159.457C137.867 157.734 138.764 157 141.242 157H156.001C162.464 157 168.712 158.137 168.712 165.982C168.712 169.355 167.528 172.214 164.691 173.717C168.605 174.781 170.364 178.373 170.364 182.589V182.589ZM145.012 171.737H156.539C160.346 171.737 161.422 170.235 161.422 167.155C161.422 164.076 160.346 162.609 156.539 162.609H145.012V171.737ZM163.075 181.929C163.075 178.666 161.961 177.054 157.868 177.054H149.357C146.198 177.054 145.012 178.044 145.012 180.206V186.769H157.868C161.961 186.769 163.075 185.155 163.075 181.929V181.929ZM258.592 192.377H251.985C251.446 192.377 251.231 192.157 251.015 191.791L244.014 178.886H237.586C234.425 178.886 233.241 179.876 233.241 182.039V192.377H226.921C226.346 192.377 226.059 192.084 226.059 191.534V159.457C226.059 157.734 226.993 157 229.435 157H244.265C252.919 157 258.125 159.31 258.125 167.888C258.125 174.524 255.002 177.126 251.123 178.153L258.916 191.754C259.059 191.974 259.059 192.377 258.592 192.377V192.377ZM250.836 168.035C250.836 164.442 249.867 162.683 245.342 162.683H233.241V173.387H245.342C249.867 173.387 250.836 171.664 250.836 168.035Z" fill="#848484"/>
</svg>
